<svg width="94" height="93" viewBox="0 0 94 93" fill="none" xmlns="http://www.w3.org/2000/svg">
<path d="M46.7186 59.5427C31.3333 57.0854 0.900594 41.7366 2.25149 0C12.1581 4.53659 19.513 8.31707 21.9521 9.64024C20.2635 16.4451 19.7006 34.5915 35.4611 43.0976C35.279 42.9141 35.0895 42.7269 34.8945 42.5343C32.678 40.3446 29.7413 37.4435 28.7066 31.189C30.3952 28.3537 34.1102 25.4049 37.7126 24.9512C39.3166 30.6071 41.6824 35.2076 42.9783 37.7277C43.5014 38.745 43.8502 39.4233 43.9042 39.6951L41.0898 15.878L46.7186 11.3415V59.5427Z" fill="#07051D"/>
<path d="M46.7186 59.5427C62.1038 57.0854 92.5365 41.7366 91.1856 0C81.279 4.53659 73.9241 8.31707 71.485 9.64024C73.1736 16.4451 73.7365 34.5915 57.976 43.0976C58.1582 42.9141 58.3476 42.7269 58.5427 42.5343C60.7591 40.3446 63.6958 37.4435 64.7305 31.189C63.0419 28.3537 59.3269 25.4049 55.7245 24.9512C54.1206 30.6071 51.7548 35.2076 50.4588 37.7277C49.9357 38.745 49.5869 39.4233 49.5329 39.6951L52.3473 15.878L46.7186 11.3415V59.5427Z" fill="#07051D"/>
<path d="M8.44311 66.3476C12.0455 61.811 16.6986 53.1159 18.5749 49.3354C19.8882 50.2805 22.9653 52.3976 24.7665 53.3049C24.3162 60.5634 26.0798 69.1829 27.018 72.5854L19.7006 77.1219C17.0739 75.4207 11.1449 70.8841 8.44311 66.3476Z" fill="#07051D"/>
<path d="M69.2335 53.3049C71.0347 52.3976 74.1118 50.2805 75.4251 49.3354C77.3014 53.1159 81.9545 61.811 85.5569 66.3476C82.8551 70.8841 76.9261 75.4207 74.2994 77.1219L66.982 72.5854C67.9202 69.1829 69.6838 60.5634 69.2335 53.3049Z" fill="#07051D"/>
<path d="M0 81.0915C2.7018 78.8232 7.50499 74.0976 9.56886 72.0183C10.9198 73.3793 16.511 78.2561 19.1377 80.5244L25.8922 76.5549L27.018 89.0305L15.1976 93C12.1956 90.5427 4.95329 84.7207 0 81.0915Z" fill="#07051D"/>
<path d="M84.4311 72.0183C86.495 74.0976 91.2982 78.8232 94 81.0915C89.0467 84.7207 81.8044 90.5427 78.8024 93L66.982 89.0305L68.1078 76.5549L74.8623 80.5244C77.489 78.2561 83.0802 73.3793 84.4311 72.0183Z" fill="#07051D"/>
<path fill-rule="evenodd" clip-rule="evenodd" d="M30.9581 74.8537C29.1569 70.7707 28.7066 62.9451 28.7066 59.5427L32.6467 60.6768C35.376 62.384 36.8729 63.3641 39.4012 65.2134C41.775 64.8472 42.6435 64.2514 43.9042 62.9451L46.7186 63.5122L49.5329 62.9451C50.7936 64.2514 51.6622 64.8472 54.0359 65.2134C56.5642 63.3641 58.0611 62.384 60.7904 60.6768L64.7305 59.5427C64.7305 62.9451 64.2802 70.7707 62.479 74.8537L59.1018 73.7195L60.7904 77.1219C58.9146 83.3203 57.5024 86.6503 54.5988 92.4329H38.8383C35.9347 86.6503 34.5225 83.3203 32.6467 77.1219L34.3353 73.7195L30.9581 74.8537ZM46.7186 74.2866L41.0898 72.0183C42.5634 74.4566 43.8694 75.6752 46.7186 77.689C49.5677 75.6752 50.8737 74.4566 52.3473 72.0183L46.7186 74.2866Z" fill="#07051D"/>
</svg>
